<?xml version="1.0" encoding="UTF-8"?>
<svg xmlns="http://www.w3.org/2000/svg" width="16" height="16" viewBox="0 0 16 16">
  <g fill="#2e3436">
    <path d="M4 3a1 1 0 0 0-1 1v8a1 1 0 0 0 1 1h8a1 1 0 0 0 1-1V4a1 1 0 0 0-1-1zm.5 1h7a.5.5 0 0 1 .5.5v7a.5.5 0 0 1-.5.5h-7a.5.5 0 0 1-.5-.5v-7a.5.5 0 0 1 .5-.5z"/>
    <path d="M2 5h1v1H2zM2 7h1v1H2zM2 9h1v1H2zM2 11h1v1H2zM13 5h1v1h-1zM13 7h1v1h-1zM13 9h1v1h-1zM13 11h1v1h-1zM5 2h1v1H5zM7 2h1v1H7zM9 2h1v1H9zM11 2h1v1h-1zM5 13h1v1H5zM7 13h1v1H7zM9 13h1v1H9zM11 13h1v1h-1z"/>
    <path d="M6 6h4v4H6z" fill-opacity="0.4"/>
  </g>
</svg>
